<svg width="24" height="24" viewBox="0 0 24 24" fill="none" xmlns="http://www.w3.org/2000/svg">
<mask id="mask0_75880_8816" style="mask-type:alpha" maskUnits="userSpaceOnUse" x="0" y="0" width="25" height="24">
<rect x="0.000976562" width="24" height="24" fill="#D9D9D9"/>
</mask>
<g mask="url(#mask0_75880_8816)">
<path d="M7.00098 21C6.45098 21 5.98014 20.8042 5.58848 20.4125C5.19681 20.0208 5.00098 19.55 5.00098 19V6C4.71764 6 4.48014 5.90417 4.28848 5.7125C4.09681 5.52083 4.00098 5.28333 4.00098 5C4.00098 4.71667 4.09681 4.47917 4.28848 4.2875C4.48014 4.09583 4.71764 4 5.00098 4H9.00098C9.00098 3.71667 9.09681 3.47917 9.28848 3.2875C9.48014 3.09583 9.71764 3 10.001 3H14.001C14.2843 3 14.5218 3.09583 14.7135 3.2875C14.9051 3.47917 15.001 3.71667 15.001 4H19.001C19.2843 4 19.5218 4.09583 19.7135 4.2875C19.9051 4.47917 20.001 4.71667 20.001 5C20.001 5.28333 19.9051 5.52083 19.7135 5.7125C19.5218 5.90417 19.2843 6 19.001 6V19C19.001 19.55 18.8051 20.0208 18.4135 20.4125C18.0218 20.8042 17.551 21 17.001 21H7.00098ZM7.00098 6V19H17.001V6H7.00098ZM9.00098 16C9.00098 16.2833 9.09681 16.5208 9.28848 16.7125C9.48014 16.9042 9.71764 17 10.001 17C10.2843 17 10.5218 16.9042 10.7135 16.7125C10.9051 16.5208 11.001 16.2833 11.001 16V9C11.001 8.71667 10.9051 8.47917 10.7135 8.2875C10.5218 8.09583 10.2843 8 10.001 8C9.71764 8 9.48014 8.09583 9.28848 8.2875C9.09681 8.47917 9.00098 8.71667 9.00098 9V16ZM13.001 16C13.001 16.2833 13.0968 16.5208 13.2885 16.7125C13.4801 16.9042 13.7176 17 14.001 17C14.2843 17 14.5218 16.9042 14.7135 16.7125C14.9051 16.5208 15.001 16.2833 15.001 16V9C15.001 8.71667 14.9051 8.47917 14.7135 8.2875C14.5218 8.09583 14.2843 8 14.001 8C13.7176 8 13.4801 8.09583 13.2885 8.2875C13.0968 8.47917 13.001 8.71667 13.001 9V16Z" fill="#2A3647"/>
</g>
</svg>
