<svg width="246" height="35" viewBox="0 0 246 35" fill="none" xmlns="http://www.w3.org/2000/svg">
<path d="M9.40909 23V11.3636H13.3409C14.2538 11.3636 15 11.5284 15.5795 11.858C16.1629 12.1837 16.5947 12.625 16.875 13.1818C17.1553 13.7386 17.2955 14.3598 17.2955 15.0455C17.2955 15.7311 17.1553 16.3542 16.875 16.9148C16.5985 17.4754 16.1705 17.9223 15.5909 18.2557C15.0114 18.5852 14.2689 18.75 13.3636 18.75H10.5455V17.5H13.3182C13.9432 17.5 14.4451 17.392 14.8239 17.1761C15.2027 16.9602 15.4773 16.6686 15.6477 16.3011C15.822 15.9299 15.9091 15.5114 15.9091 15.0455C15.9091 14.5795 15.822 14.1629 15.6477 13.7955C15.4773 13.428 15.2008 13.1402 14.8182 12.9318C14.4356 12.7197 13.928 12.6136 13.2955 12.6136H10.8182V23H9.40909ZM19.3835 23V14.2727H20.679V15.5909H20.7699C20.929 15.1591 21.2169 14.8087 21.6335 14.5398C22.0502 14.2708 22.5199 14.1364 23.0426 14.1364C23.1411 14.1364 23.2642 14.1383 23.4119 14.142C23.5597 14.1458 23.6714 14.1515 23.7472 14.1591V15.5227C23.7017 15.5114 23.5975 15.4943 23.4347 15.4716C23.2756 15.4451 23.107 15.4318 22.929 15.4318C22.5047 15.4318 22.1259 15.5208 21.7926 15.6989C21.4631 15.8731 21.2017 16.1155 21.0085 16.4261C20.8191 16.733 20.7244 17.0833 20.7244 17.4773V23H19.3835ZM25.3366 23V14.2727H26.6776V23H25.3366ZM26.0185 12.8182C25.7571 12.8182 25.5317 12.7292 25.3423 12.5511C25.1567 12.3731 25.0639 12.1591 25.0639 11.9091C25.0639 11.6591 25.1567 11.4451 25.3423 11.267C25.5317 11.089 25.7571 11 26.0185 11C26.2798 11 26.5033 11.089 26.6889 11.267C26.8783 11.4451 26.973 11.6591 26.973 11.9091C26.973 12.1591 26.8783 12.3731 26.6889 12.5511C26.5033 12.7292 26.2798 12.8182 26.0185 12.8182ZM36.2699 14.2727L33.0426 23H31.679L28.4517 14.2727H29.9062L32.3153 21.2273H32.4062L34.8153 14.2727H36.2699ZM40.3423 23.2045C39.7893 23.2045 39.2874 23.1004 38.8366 22.892C38.3859 22.6799 38.0279 22.375 37.7628 21.9773C37.4976 21.5758 37.3651 21.0909 37.3651 20.5227C37.3651 20.0227 37.4635 19.6174 37.6605 19.3068C37.8575 18.9924 38.1207 18.7462 38.4503 18.5682C38.7798 18.3902 39.1435 18.2576 39.5412 18.1705C39.9427 18.0795 40.3461 18.0076 40.7514 17.9545C41.2817 17.8864 41.7116 17.8352 42.0412 17.8011C42.3745 17.7633 42.617 17.7008 42.7685 17.6136C42.9238 17.5265 43.0014 17.375 43.0014 17.1591V17.1136C43.0014 16.553 42.848 16.1174 42.5412 15.8068C42.2382 15.4962 41.7779 15.3409 41.1605 15.3409C40.5204 15.3409 40.0185 15.4811 39.6548 15.7614C39.2912 16.0417 39.0355 16.3409 38.8878 16.6591L37.6151 16.2045C37.8423 15.6742 38.1454 15.2614 38.5241 14.9659C38.9067 14.6667 39.3234 14.4583 39.7741 14.3409C40.2287 14.2197 40.6757 14.1591 41.1151 14.1591C41.3954 14.1591 41.7173 14.1932 42.081 14.2614C42.4484 14.3258 42.8026 14.4602 43.1435 14.6648C43.4882 14.8693 43.7741 15.178 44.0014 15.5909C44.2287 16.0038 44.3423 16.5568 44.3423 17.25V23H43.0014V21.8182H42.9332C42.8423 22.0076 42.6908 22.2102 42.4787 22.4261C42.2666 22.642 41.9844 22.8258 41.6321 22.9773C41.2798 23.1288 40.8499 23.2045 40.3423 23.2045ZM40.5469 22C41.0772 22 41.5241 21.8958 41.8878 21.6875C42.2552 21.4792 42.5317 21.2102 42.7173 20.8807C42.9067 20.5511 43.0014 20.2045 43.0014 19.8409V18.6136C42.9446 18.6818 42.8196 18.7443 42.6264 18.8011C42.437 18.8542 42.2173 18.9015 41.9673 18.9432C41.7211 18.9811 41.4806 19.0152 41.2457 19.0455C41.0147 19.072 40.8272 19.0947 40.6832 19.1136C40.3348 19.1591 40.009 19.233 39.706 19.3352C39.4067 19.4337 39.1643 19.5833 38.9787 19.7841C38.7969 19.9811 38.706 20.25 38.706 20.5909C38.706 21.0568 38.8783 21.4091 39.223 21.6477C39.5715 21.8826 40.0128 22 40.5469 22ZM50.3352 23.1818C49.517 23.1818 48.8125 22.9886 48.2216 22.6023C47.6307 22.2159 47.1761 21.6837 46.858 21.0057C46.5398 20.3277 46.3807 19.553 46.3807 18.6818C46.3807 17.7955 46.5436 17.0133 46.8693 16.3352C47.1989 15.6534 47.6572 15.1212 48.2443 14.7386C48.8352 14.3523 49.5246 14.1591 50.3125 14.1591C50.9261 14.1591 51.4792 14.2727 51.9716 14.5C52.464 14.7273 52.8674 15.0455 53.1818 15.4545C53.4962 15.8636 53.6913 16.3409 53.767 16.8864H52.4261C52.3239 16.4886 52.0966 16.1364 51.7443 15.8295C51.3958 15.5189 50.9261 15.3636 50.3352 15.3636C49.8125 15.3636 49.3542 15.5 48.9602 15.7727C48.5701 16.0417 48.2652 16.4223 48.0455 16.9148C47.8295 17.4034 47.7216 17.9773 47.7216 18.6364C47.7216 19.3106 47.8277 19.8977 48.0398 20.3977C48.2557 20.8977 48.5587 21.286 48.9489 21.5625C49.3428 21.839 49.8049 21.9773 50.3352 21.9773C50.6837 21.9773 51 21.9167 51.2841 21.7955C51.5682 21.6742 51.8087 21.5 52.0057 21.2727C52.2027 21.0455 52.3428 20.7727 52.4261 20.4545H53.767C53.6913 20.9697 53.5038 21.4337 53.2045 21.8466C52.9091 22.2557 52.517 22.5814 52.0284 22.8239C51.5436 23.0625 50.9792 23.1818 50.3352 23.1818ZM56.5909 26.2727C56.3636 26.2727 56.161 26.2538 55.983 26.2159C55.8049 26.1818 55.6818 26.1477 55.6136 26.1136L55.9545 24.9318C56.2803 25.0152 56.5682 25.0455 56.8182 25.0227C57.0682 25 57.2898 24.8883 57.483 24.6875C57.6799 24.4905 57.8598 24.1705 58.0227 23.7273L58.2727 23.0455L55.0455 14.2727H56.5L58.9091 21.2273H59L61.4091 14.2727H62.8636L59.1591 24.2727C58.9924 24.7235 58.786 25.0966 58.5398 25.392C58.2936 25.6913 58.0076 25.9129 57.6818 26.0568C57.3598 26.2008 56.9962 26.2727 56.5909 26.2727ZM69.3153 23V11.3636H73.2472C74.16 11.3636 74.9063 11.5284 75.4858 11.858C76.0691 12.1837 76.5009 12.625 76.7812 13.1818C77.0616 13.7386 77.2017 14.3598 77.2017 15.0455C77.2017 15.7311 77.0616 16.3542 76.7812 16.9148C76.5047 17.4754 76.0767 17.9223 75.4972 18.2557C74.9176 18.5852 74.1752 18.75 73.2699 18.75H70.4517V17.5H73.2244C73.8494 17.5 74.3513 17.392 74.7301 17.1761C75.1089 16.9602 75.3835 16.6686 75.554 16.3011C75.7282 15.9299 75.8153 15.5114 75.8153 15.0455C75.8153 14.5795 75.7282 14.1629 75.554 13.7955C75.3835 13.428 75.107 13.1402 74.7244 12.9318C74.3419 12.7197 73.8343 12.6136 73.2017 12.6136H70.7244V23H69.3153ZM82.7415 23.1818C81.9536 23.1818 81.2623 22.9943 80.6676 22.6193C80.0767 22.2443 79.6146 21.7197 79.2812 21.0455C78.9517 20.3712 78.7869 19.5833 78.7869 18.6818C78.7869 17.7727 78.9517 16.9792 79.2812 16.3011C79.6146 15.6231 80.0767 15.0966 80.6676 14.7216C81.2623 14.3466 81.9536 14.1591 82.7415 14.1591C83.5294 14.1591 84.2188 14.3466 84.8097 14.7216C85.4044 15.0966 85.8665 15.6231 86.196 16.3011C86.5294 16.9792 86.696 17.7727 86.696 18.6818C86.696 19.5833 86.5294 20.3712 86.196 21.0455C85.8665 21.7197 85.4044 22.2443 84.8097 22.6193C84.2188 22.9943 83.5294 23.1818 82.7415 23.1818ZM82.7415 21.9773C83.34 21.9773 83.8324 21.8239 84.2188 21.517C84.6051 21.2102 84.8911 20.8068 85.0767 20.3068C85.2623 19.8068 85.3551 19.2652 85.3551 18.6818C85.3551 18.0985 85.2623 17.5549 85.0767 17.0511C84.8911 16.5473 84.6051 16.1402 84.2188 15.8295C83.8324 15.5189 83.34 15.3636 82.7415 15.3636C82.143 15.3636 81.6506 15.5189 81.2642 15.8295C80.8778 16.1402 80.5919 16.5473 80.4062 17.0511C80.2206 17.5549 80.1278 18.0985 80.1278 18.6818C80.1278 19.2652 80.2206 19.8068 80.4062 20.3068C80.5919 20.8068 80.8778 21.2102 81.2642 21.517C81.6506 21.8239 82.143 21.9773 82.7415 21.9773ZM90.0838 11.3636V23H88.7429V11.3636H90.0838ZM92.5398 23V14.2727H93.8807V23H92.5398ZM93.2216 12.8182C92.9602 12.8182 92.7348 12.7292 92.5455 12.5511C92.3598 12.3731 92.267 12.1591 92.267 11.9091C92.267 11.6591 92.3598 11.4451 92.5455 11.267C92.7348 11.089 92.9602 11 93.2216 11C93.483 11 93.7064 11.089 93.892 11.267C94.0814 11.4451 94.1761 11.6591 94.1761 11.9091C94.1761 12.1591 94.0814 12.3731 93.892 12.5511C93.7064 12.7292 93.483 12.8182 93.2216 12.8182ZM99.8821 23.1818C99.0639 23.1818 98.3594 22.9886 97.7685 22.6023C97.1776 22.2159 96.723 21.6837 96.4048 21.0057C96.0866 20.3277 95.9276 19.553 95.9276 18.6818C95.9276 17.7955 96.0904 17.0133 96.4162 16.3352C96.7457 15.6534 97.2041 15.1212 97.7912 14.7386C98.3821 14.3523 99.0715 14.1591 99.8594 14.1591C100.473 14.1591 101.026 14.2727 101.518 14.5C102.011 14.7273 102.414 15.0455 102.729 15.4545C103.043 15.8636 103.238 16.3409 103.314 16.8864H101.973C101.871 16.4886 101.643 16.1364 101.291 15.8295C100.943 15.5189 100.473 15.3636 99.8821 15.3636C99.3594 15.3636 98.901 15.5 98.5071 15.7727C98.117 16.0417 97.812 16.4223 97.5923 16.9148C97.3764 17.4034 97.2685 17.9773 97.2685 18.6364C97.2685 19.3106 97.3745 19.8977 97.5866 20.3977C97.8026 20.8977 98.1056 21.286 98.4957 21.5625C98.8897 21.839 99.3518 21.9773 99.8821 21.9773C100.231 21.9773 100.547 21.9167 100.831 21.7955C101.115 21.6742 101.356 21.5 101.553 21.2727C101.75 21.0455 101.89 20.7727 101.973 20.4545H103.314C103.238 20.9697 103.051 21.4337 102.751 21.8466C102.456 22.2557 102.064 22.5814 101.575 22.8239C101.09 23.0625 100.526 23.1818 99.8821 23.1818ZM106.138 26.2727C105.911 26.2727 105.708 26.2538 105.53 26.2159C105.352 26.1818 105.229 26.1477 105.161 26.1136L105.501 24.9318C105.827 25.0152 106.115 25.0455 106.365 25.0227C106.615 25 106.837 24.8883 107.03 24.6875C107.227 24.4905 107.407 24.1705 107.57 23.7273L107.82 23.0455L104.592 14.2727H106.047L108.456 21.2273H108.547L110.956 14.2727H112.411L108.706 24.2727C108.539 24.7235 108.333 25.0966 108.087 25.392C107.84 25.6913 107.554 25.9129 107.229 26.0568C106.907 26.2008 106.543 26.2727 106.138 26.2727Z" fill="#A8A8A8"/>
<path d="M146.409 23V11.3636H147.818V21.75H153.227V23H146.409ZM158.886 23.1818C158.045 23.1818 157.32 22.9962 156.71 22.625C156.104 22.25 155.636 21.7273 155.307 21.0568C154.981 20.3826 154.818 19.5985 154.818 18.7045C154.818 17.8106 154.981 17.0227 155.307 16.3409C155.636 15.6553 156.095 15.1212 156.682 14.7386C157.273 14.3523 157.962 14.1591 158.75 14.1591C159.205 14.1591 159.653 14.2348 160.097 14.3864C160.54 14.5379 160.943 14.7841 161.307 15.125C161.67 15.4621 161.96 15.9091 162.176 16.4659C162.392 17.0227 162.5 17.7083 162.5 18.5227V19.0909H155.773V17.9318H161.136C161.136 17.4394 161.038 17 160.841 16.6136C160.648 16.2273 160.371 15.9223 160.011 15.6989C159.655 15.4754 159.235 15.3636 158.75 15.3636C158.216 15.3636 157.754 15.4962 157.364 15.7614C156.977 16.0227 156.68 16.3636 156.472 16.7841C156.263 17.2045 156.159 17.6553 156.159 18.1364V18.9091C156.159 19.5682 156.273 20.1269 156.5 20.5852C156.731 21.0398 157.051 21.3864 157.46 21.625C157.869 21.8598 158.345 21.9773 158.886 21.9773C159.239 21.9773 159.557 21.928 159.841 21.8295C160.129 21.7273 160.377 21.5758 160.585 21.375C160.794 21.1705 160.955 20.9167 161.068 20.6136L162.364 20.9773C162.227 21.4167 161.998 21.803 161.676 22.1364C161.354 22.4659 160.956 22.7235 160.483 22.9091C160.009 23.0909 159.477 23.1818 158.886 23.1818ZM168.062 26.4545C167.415 26.4545 166.858 26.3712 166.392 26.2045C165.926 26.0417 165.538 25.8258 165.227 25.5568C164.92 25.2917 164.676 25.0076 164.494 24.7045L165.562 23.9545C165.684 24.1136 165.837 24.2955 166.023 24.5C166.208 24.7083 166.462 24.8883 166.784 25.0398C167.11 25.1951 167.536 25.2727 168.062 25.2727C168.767 25.2727 169.348 25.1023 169.807 24.7614C170.265 24.4205 170.494 23.8864 170.494 23.1591V21.3864H170.381C170.282 21.5455 170.142 21.7424 169.96 21.9773C169.782 22.2083 169.525 22.4148 169.188 22.5966C168.854 22.7746 168.403 22.8636 167.835 22.8636C167.131 22.8636 166.498 22.697 165.938 22.3636C165.381 22.0303 164.939 21.5455 164.614 20.9091C164.292 20.2727 164.131 19.5 164.131 18.5909C164.131 17.697 164.288 16.9186 164.602 16.2557C164.917 15.589 165.354 15.0739 165.915 14.7102C166.475 14.3428 167.123 14.1591 167.858 14.1591C168.426 14.1591 168.877 14.2538 169.21 14.4432C169.547 14.6288 169.805 14.8409 169.983 15.0795C170.165 15.3144 170.305 15.5076 170.403 15.6591H170.54V14.2727H171.835V23.25C171.835 24 171.665 24.6098 171.324 25.0795C170.987 25.553 170.532 25.8996 169.96 26.1193C169.392 26.3428 168.759 26.4545 168.062 26.4545ZM168.017 21.6591C168.555 21.6591 169.009 21.536 169.381 21.2898C169.752 21.0436 170.034 20.6894 170.227 20.2273C170.42 19.7652 170.517 19.2121 170.517 18.5682C170.517 17.9394 170.422 17.3845 170.233 16.9034C170.044 16.4223 169.763 16.0455 169.392 15.7727C169.021 15.5 168.563 15.3636 168.017 15.3636C167.449 15.3636 166.975 15.5076 166.597 15.7955C166.222 16.0833 165.939 16.4697 165.75 16.9545C165.564 17.4394 165.472 17.9773 165.472 18.5682C165.472 19.1742 165.566 19.7102 165.756 20.1761C165.949 20.6383 166.233 21.0019 166.608 21.267C166.987 21.5284 167.456 21.6591 168.017 21.6591ZM176.858 23.2045C176.305 23.2045 175.803 23.1004 175.352 22.892C174.902 22.6799 174.544 22.375 174.278 21.9773C174.013 21.5758 173.881 21.0909 173.881 20.5227C173.881 20.0227 173.979 19.6174 174.176 19.3068C174.373 18.9924 174.636 18.7462 174.966 18.5682C175.295 18.3902 175.659 18.2576 176.057 18.1705C176.458 18.0795 176.862 18.0076 177.267 17.9545C177.797 17.8864 178.227 17.8352 178.557 17.8011C178.89 17.7633 179.133 17.7008 179.284 17.6136C179.439 17.5265 179.517 17.375 179.517 17.1591V17.1136C179.517 16.553 179.364 16.1174 179.057 15.8068C178.754 15.4962 178.294 15.3409 177.676 15.3409C177.036 15.3409 176.534 15.4811 176.17 15.7614C175.807 16.0417 175.551 16.3409 175.403 16.6591L174.131 16.2045C174.358 15.6742 174.661 15.2614 175.04 14.9659C175.422 14.6667 175.839 14.4583 176.29 14.3409C176.744 14.2197 177.191 14.1591 177.631 14.1591C177.911 14.1591 178.233 14.1932 178.597 14.2614C178.964 14.3258 179.318 14.4602 179.659 14.6648C180.004 14.8693 180.29 15.178 180.517 15.5909C180.744 16.0038 180.858 16.5568 180.858 17.25V23H179.517V21.8182H179.449C179.358 22.0076 179.206 22.2102 178.994 22.4261C178.782 22.642 178.5 22.8258 178.148 22.9773C177.795 23.1288 177.366 23.2045 176.858 23.2045ZM177.062 22C177.593 22 178.04 21.8958 178.403 21.6875C178.771 21.4792 179.047 21.2102 179.233 20.8807C179.422 20.5511 179.517 20.2045 179.517 19.8409V18.6136C179.46 18.6818 179.335 18.7443 179.142 18.8011C178.953 18.8542 178.733 18.9015 178.483 18.9432C178.237 18.9811 177.996 19.0152 177.761 19.0455C177.53 19.072 177.343 19.0947 177.199 19.1136C176.85 19.1591 176.525 19.233 176.222 19.3352C175.922 19.4337 175.68 19.5833 175.494 19.7841C175.313 19.9811 175.222 20.25 175.222 20.5909C175.222 21.0568 175.394 21.4091 175.739 21.6477C176.087 21.8826 176.528 22 177.062 22ZM184.646 11.3636V23H183.305V11.3636H184.646ZM192.943 17.75V23H191.602V14.2727H192.898V15.6364H193.011C193.216 15.1932 193.527 14.8371 193.943 14.5682C194.36 14.2955 194.898 14.1591 195.557 14.1591C196.148 14.1591 196.665 14.2803 197.108 14.5227C197.551 14.7614 197.896 15.125 198.142 15.6136C198.388 16.0985 198.511 16.7121 198.511 17.4545V23H197.17V17.5455C197.17 16.8598 196.992 16.3258 196.636 15.9432C196.28 15.5568 195.792 15.3636 195.17 15.3636C194.742 15.3636 194.36 15.4564 194.023 15.642C193.689 15.8277 193.426 16.0985 193.233 16.4545C193.04 16.8106 192.943 17.2424 192.943 17.75ZM204.507 23.1818C203.719 23.1818 203.028 22.9943 202.433 22.6193C201.842 22.2443 201.38 21.7197 201.047 21.0455C200.717 20.3712 200.553 19.5833 200.553 18.6818C200.553 17.7727 200.717 16.9792 201.047 16.3011C201.38 15.6231 201.842 15.0966 202.433 14.7216C203.028 14.3466 203.719 14.1591 204.507 14.1591C205.295 14.1591 205.984 14.3466 206.575 14.7216C207.17 15.0966 207.632 15.6231 207.962 16.3011C208.295 16.9792 208.462 17.7727 208.462 18.6818C208.462 19.5833 208.295 20.3712 207.962 21.0455C207.632 21.7197 207.17 22.2443 206.575 22.6193C205.984 22.9943 205.295 23.1818 204.507 23.1818ZM204.507 21.9773C205.106 21.9773 205.598 21.8239 205.984 21.517C206.371 21.2102 206.657 20.8068 206.842 20.3068C207.028 19.8068 207.121 19.2652 207.121 18.6818C207.121 18.0985 207.028 17.5549 206.842 17.0511C206.657 16.5473 206.371 16.1402 205.984 15.8295C205.598 15.5189 205.106 15.3636 204.507 15.3636C203.909 15.3636 203.416 15.5189 203.03 15.8295C202.643 16.1402 202.357 16.5473 202.172 17.0511C201.986 17.5549 201.893 18.0985 201.893 18.6818C201.893 19.2652 201.986 19.8068 202.172 20.3068C202.357 20.8068 202.643 21.2102 203.03 21.517C203.416 21.8239 203.909 21.9773 204.507 21.9773ZM214.304 14.2727V15.4091H209.781V14.2727H214.304ZM211.099 12.1818H212.44V20.5C212.44 20.8788 212.495 21.1629 212.605 21.3523C212.719 21.5379 212.863 21.6629 213.037 21.7273C213.215 21.7879 213.402 21.8182 213.599 21.8182C213.747 21.8182 213.868 21.8106 213.963 21.7955C214.058 21.7765 214.134 21.7614 214.19 21.75L214.463 22.9545C214.372 22.9886 214.245 23.0227 214.082 23.0568C213.92 23.0947 213.713 23.1136 213.463 23.1136C213.084 23.1136 212.713 23.0322 212.349 22.8693C211.99 22.7064 211.69 22.4583 211.452 22.125C211.217 21.7917 211.099 21.3712 211.099 20.8636V12.1818ZM216.321 23V14.2727H217.662V23H216.321ZM217.003 12.8182C216.741 12.8182 216.516 12.7292 216.327 12.5511C216.141 12.3731 216.048 12.1591 216.048 11.9091C216.048 11.6591 216.141 11.4451 216.327 11.267C216.516 11.089 216.741 11 217.003 11C217.264 11 217.488 11.089 217.673 11.267C217.863 11.4451 217.957 11.6591 217.957 11.9091C217.957 12.1591 217.863 12.3731 217.673 12.5511C217.488 12.7292 217.264 12.8182 217.003 12.8182ZM223.663 23.1818C222.845 23.1818 222.141 22.9886 221.55 22.6023C220.959 22.2159 220.504 21.6837 220.186 21.0057C219.868 20.3277 219.709 19.553 219.709 18.6818C219.709 17.7955 219.872 17.0133 220.197 16.3352C220.527 15.6534 220.985 15.1212 221.572 14.7386C222.163 14.3523 222.853 14.1591 223.641 14.1591C224.254 14.1591 224.807 14.2727 225.3 14.5C225.792 14.7273 226.196 15.0455 226.51 15.4545C226.824 15.8636 227.019 16.3409 227.095 16.8864H225.754C225.652 16.4886 225.425 16.1364 225.072 15.8295C224.724 15.5189 224.254 15.3636 223.663 15.3636C223.141 15.3636 222.682 15.5 222.288 15.7727C221.898 16.0417 221.593 16.4223 221.374 16.9148C221.158 17.4034 221.05 17.9773 221.05 18.6364C221.05 19.3106 221.156 19.8977 221.368 20.3977C221.584 20.8977 221.887 21.286 222.277 21.5625C222.671 21.839 223.133 21.9773 223.663 21.9773C224.012 21.9773 224.328 21.9167 224.612 21.7955C224.896 21.6742 225.137 21.5 225.334 21.2727C225.531 21.0455 225.671 20.7727 225.754 20.4545H227.095C227.019 20.9697 226.832 21.4337 226.533 21.8466C226.237 22.2557 225.845 22.5814 225.357 22.8239C224.872 23.0625 224.307 23.1818 223.663 23.1818ZM232.714 23.1818C231.874 23.1818 231.148 22.9962 230.538 22.625C229.932 22.25 229.464 21.7273 229.135 21.0568C228.809 20.3826 228.646 19.5985 228.646 18.7045C228.646 17.8106 228.809 17.0227 229.135 16.3409C229.464 15.6553 229.923 15.1212 230.51 14.7386C231.101 14.3523 231.79 14.1591 232.578 14.1591C233.033 14.1591 233.482 14.2348 233.925 14.3864C234.368 14.5379 234.771 14.7841 235.135 15.125C235.499 15.4621 235.788 15.9091 236.004 16.4659C236.22 17.0227 236.328 17.7083 236.328 18.5227V19.0909H229.601V17.9318H234.964C234.964 17.4394 234.866 17 234.669 16.6136C234.476 16.2273 234.199 15.9223 233.839 15.6989C233.483 15.4754 233.063 15.3636 232.578 15.3636C232.044 15.3636 231.582 15.4962 231.192 15.7614C230.805 16.0227 230.508 16.3636 230.3 16.7841C230.091 17.2045 229.987 17.6553 229.987 18.1364V18.9091C229.987 19.5682 230.101 20.1269 230.328 20.5852C230.559 21.0398 230.879 21.3864 231.288 21.625C231.697 21.8598 232.173 21.9773 232.714 21.9773C233.067 21.9773 233.385 21.928 233.669 21.8295C233.957 21.7273 234.205 21.5758 234.413 21.375C234.622 21.1705 234.783 20.9167 234.896 20.6136L236.192 20.9773C236.055 21.4167 235.826 21.803 235.504 22.1364C235.182 22.4659 234.785 22.7235 234.311 22.9091C233.838 23.0909 233.305 23.1818 232.714 23.1818Z" fill="#A8A8A8"/>
</svg>
